<mxfile host="app.diagrams.net" agent="Mozilla/5.0 (Windows NT 10.0; Win64; x64) AppleWebKit/537.36 (KHTML, like Gecko) Chrome/123.0.0.0 Safari/537.36 OPR/109.0.0.0" version="24.7.7">
  <diagram name="PÃ¡gina-1" id="_sBV1_8d2K-Yy8zrgml7">
    <mxGraphModel dx="986" dy="524" grid="1" gridSize="10" guides="1" tooltips="1" connect="1" arrows="1" fold="1" page="1" pageScale="1" pageWidth="827" pageHeight="1169" math="0" shadow="0">
      <root>
        <mxCell id="0" />
        <mxCell id="1" parent="0" />
        <mxCell id="1kbJixUE2xFf0A5VzTWB-6" style="edgeStyle=orthogonalEdgeStyle;rounded=0;orthogonalLoop=1;jettySize=auto;html=1;" edge="1" parent="1" source="1kbJixUE2xFf0A5VzTWB-1" target="1kbJixUE2xFf0A5VzTWB-3">
          <mxGeometry relative="1" as="geometry" />
        </mxCell>
        <mxCell id="1kbJixUE2xFf0A5VzTWB-25" value="Leiloeiro Pausou" style="edgeLabel;html=1;align=center;verticalAlign=middle;resizable=0;points=[];" vertex="1" connectable="0" parent="1kbJixUE2xFf0A5VzTWB-6">
          <mxGeometry x="-0.0597" y="2" relative="1" as="geometry">
            <mxPoint as="offset" />
          </mxGeometry>
        </mxCell>
        <mxCell id="1kbJixUE2xFf0A5VzTWB-18" value="Leiloeiro Reiniciou" style="edgeStyle=orthogonalEdgeStyle;rounded=0;orthogonalLoop=1;jettySize=auto;html=1;exitX=0.5;exitY=0;exitDx=0;exitDy=0;entryX=0.5;entryY=0;entryDx=0;entryDy=0;" edge="1" parent="1" source="1kbJixUE2xFf0A5VzTWB-3" target="1kbJixUE2xFf0A5VzTWB-1">
          <mxGeometry relative="1" as="geometry">
            <mxPoint x="520" y="100" as="targetPoint" />
            <Array as="points">
              <mxPoint x="470" y="80" />
              <mxPoint x="210" y="80" />
            </Array>
          </mxGeometry>
        </mxCell>
        <mxCell id="1kbJixUE2xFf0A5VzTWB-20" value="Data limite passou" style="edgeStyle=orthogonalEdgeStyle;rounded=0;orthogonalLoop=1;jettySize=auto;html=1;entryX=0;entryY=0.5;entryDx=0;entryDy=0;" edge="1" parent="1" source="1kbJixUE2xFf0A5VzTWB-1" target="1kbJixUE2xFf0A5VzTWB-2">
          <mxGeometry relative="1" as="geometry">
            <Array as="points">
              <mxPoint x="210" y="310" />
            </Array>
          </mxGeometry>
        </mxCell>
        <mxCell id="1kbJixUE2xFf0A5VzTWB-1" value="Aberto" style="rounded=1;whiteSpace=wrap;html=1;" vertex="1" parent="1">
          <mxGeometry x="160" y="150" width="100" height="60" as="geometry" />
        </mxCell>
        <mxCell id="1kbJixUE2xFf0A5VzTWB-22" style="edgeStyle=orthogonalEdgeStyle;rounded=0;orthogonalLoop=1;jettySize=auto;html=1;" edge="1" parent="1" source="1kbJixUE2xFf0A5VzTWB-2" target="1kbJixUE2xFf0A5VzTWB-21">
          <mxGeometry relative="1" as="geometry" />
        </mxCell>
        <mxCell id="1kbJixUE2xFf0A5VzTWB-2" value="Encerrado" style="rounded=1;whiteSpace=wrap;html=1;" vertex="1" parent="1">
          <mxGeometry x="290" y="280" width="100" height="60" as="geometry" />
        </mxCell>
        <mxCell id="1kbJixUE2xFf0A5VzTWB-19" value="Leiloeiro Desistiu" style="edgeStyle=orthogonalEdgeStyle;rounded=0;orthogonalLoop=1;jettySize=auto;html=1;entryX=1;entryY=0.5;entryDx=0;entryDy=0;" edge="1" parent="1" source="1kbJixUE2xFf0A5VzTWB-3" target="1kbJixUE2xFf0A5VzTWB-2">
          <mxGeometry relative="1" as="geometry">
            <Array as="points">
              <mxPoint x="470" y="310" />
            </Array>
          </mxGeometry>
        </mxCell>
        <mxCell id="1kbJixUE2xFf0A5VzTWB-3" value="Suspenso" style="rounded=1;whiteSpace=wrap;html=1;" vertex="1" parent="1">
          <mxGeometry x="420" y="150" width="100" height="60" as="geometry" />
        </mxCell>
        <mxCell id="1kbJixUE2xFf0A5VzTWB-5" value="" style="edgeStyle=orthogonalEdgeStyle;rounded=0;orthogonalLoop=1;jettySize=auto;html=1;" edge="1" parent="1" source="1kbJixUE2xFf0A5VzTWB-4" target="1kbJixUE2xFf0A5VzTWB-1">
          <mxGeometry relative="1" as="geometry" />
        </mxCell>
        <mxCell id="1kbJixUE2xFf0A5VzTWB-4" value="" style="ellipse;whiteSpace=wrap;html=1;aspect=fixed;" vertex="1" parent="1">
          <mxGeometry x="40" y="160" width="40" height="40" as="geometry" />
        </mxCell>
        <mxCell id="1kbJixUE2xFf0A5VzTWB-21" value="" style="ellipse;whiteSpace=wrap;html=1;aspect=fixed;" vertex="1" parent="1">
          <mxGeometry x="320" y="400" width="40" height="40" as="geometry" />
        </mxCell>
      </root>
    </mxGraphModel>
  </diagram>
</mxfile>
